<svg width="3550" height="1856" viewBox="0 0 3550 1856" fill="none" xmlns="http://www.w3.org/2000/svg">
<path d="M3197.98 404.346C3188.26 423.964 3205.66 445.697 3227.04 440.504C3227.24 440.504 3227.43 440.504 3227.63 440.408C3333 414.924 3424.76 378.959 3486.1 321.74C3624.04 192.783 3529.75 42.5733 3288.87 9.8772C3136.15 -10.7983 2979.75 5.26129 2824.02 48.0547C2629.61 101.522 2457.26 199.515 2418.28 323.471C2369.29 421.656 2383.19 548.113 2472.03 628.026C2516.75 668.319 2567.88 697.553 2621.93 722.364C2710.39 762.946 2800.89 799.392 2886.91 845.359C2933.77 870.362 2979.55 897.384 3016.39 936.235C3055.08 977.105 3079.48 1024.51 3074.14 1081.93C3065.78 1171.55 3013.09 1228.77 2930.95 1260.22C2857.36 1288.39 2781.15 1283.78 2705.33 1270.41C2596.07 1250.98 2493.22 1210.98 2389.6 1173.38C2379.98 1169.92 2379.1 1164.92 2379.88 1156.36C2391.74 1020.48 2390.18 884.883 2367.44 750.156C2357.13 688.802 2340.8 629.084 2308.82 574.847C2271.4 511.474 2214.63 480.124 2140.85 479.163C2081.16 478.393 2026.43 497.53 1974.04 523.687C1850.88 585.329 1746.28 671.685 1647.52 765.542C1638.77 773.909 1630.02 782.275 1621.27 790.834C1606.89 804.97 1583.27 789.872 1590.17 771.024C1595.81 755.445 1601.06 739.962 1605.82 724.383C1646.74 590.426 1666.67 454.929 1635.08 315.971C1614.37 224.902 1574.13 144.124 1500.54 82.9626C1421.12 16.8972 1326.35 -3.00891 1226.03 0.356866C1100.44 4.58813 978.928 29.8795 862.279 77.2889C648.909 163.934 468.881 295.968 319.279 468.681C198.255 608.312 103.284 763.33 44.9594 938.832C7.14574 1052.69 -13.0734 1169.05 9.38151 1288.68C60.6098 1561.69 291.963 1683.92 487.836 1695.27C619.358 1702.96 742.811 1671.51 860.238 1614.39C922.645 1584.1 981.261 1547.84 1038.03 1505.44C1052.81 1494.38 1073.22 1508.32 1067.78 1525.92L1016.74 1688.44L1016.06 1691.32C1006.53 1746.91 1029.38 1785.28 1083.62 1803.45C1099.37 1808.74 1115.6 1811.72 1132.13 1813.84C1186.56 1820.86 1241.19 1815.66 1295.73 1817.49C1311.47 1817.97 1317.7 1812.2 1323.24 1798.64C1359.98 1707.96 1410.04 1625.26 1477.02 1553.04C1582 1439.85 1712.26 1371.96 1864.49 1345.32C1933.02 1333.3 2002.23 1331.95 2071.64 1339.65C2080.68 1340.61 2083.01 1343.4 2083.11 1352.25C2083.5 1380.81 2084.37 1409.46 2086.51 1437.93C2091.17 1501.97 2101.09 1565.06 2128.7 1623.91C2191.49 1757.77 2295.21 1839.51 2445.11 1854.23C2571.87 1866.63 2672.67 1813.16 2752.96 1718.54C2763.75 1705.84 2753.84 1686.61 2737.02 1687.67C2656.73 1692.96 2582.36 1676.71 2515.97 1626.41C2449.48 1575.92 2410.5 1510.24 2392.23 1431.2C2388.82 1416.68 2403.7 1404.37 2417.79 1409.85C2463.28 1427.45 2507.03 1444.47 2550.97 1460.91C2694.54 1514.67 2841.23 1546.98 2995.98 1524.09C3114.09 1506.59 3220.53 1464.09 3307.04 1380.71C3411.54 1280.03 3456.74 1156.93 3438.18 1013.55C3425.74 917.002 3381.21 834.589 3313.46 764.292C3243.67 691.784 3157.64 641.201 3072.97 588.598C3009.1 548.882 2940.18 517.436 2878.85 473.777C2878.26 473.393 2877.68 472.912 2877 472.431C2742.76 376.074 2769.88 275.966 2933.67 250.578C2947.09 248.463 2960.69 246.828 2974.5 245.385C3121.96 230.961 3223.64 282.217 3211.78 363.765C3209.74 377.516 3204.88 391.075 3198.27 404.539L3197.98 404.346ZM1329.94 780.929C1231.38 990.28 1090.52 1166.93 901.551 1303.97C831.659 1354.65 754.282 1390.13 666.892 1399.75C542.953 1413.31 414.25 1367.15 361.467 1248C342.511 1205.3 336.776 1160.59 337.651 1114.14C343.872 1003.55 383.047 902.577 435.733 806.22C531.191 631.584 655.227 480.605 817.953 362.803C897.468 305.296 983.691 260.579 1081.29 240.769C1155.75 225.672 1228.26 227.306 1292.91 272.792C1355.02 316.548 1385.84 379.247 1395.75 452.429C1411.6 569.173 1378.64 677.455 1329.94 781.025V780.929ZM2097.1 1110.97C2095.45 1126.06 2090.88 1131.74 2073.97 1131.16C1887.23 1124.81 1709.34 1163.09 1539.04 1237.71C1534.47 1239.73 1530 1241.94 1519.98 1246.66C1625.55 1093.75 1718.29 938.158 1850 811.413C1882.18 780.448 1914.94 749.963 1955.18 728.999C1973.94 719.191 1993.38 711.69 2015.06 710.824C2054.33 709.189 2079.02 724.768 2094.09 761.119C2104.49 786.121 2107.7 812.567 2108.77 839.108C2112.56 929.984 2107.12 1020.57 2097.2 1110.97H2097.1Z" fill="#103B6B"/>
</svg>
